<?xml version="1.0" encoding="UTF-8" standalone="no"?>
<!DOCTYPE svg PUBLIC "-//W3C//DTD SVG 1.1//EN"
 "http://www.w3.org/Graphics/SVG/1.1/DTD/svg11.dtd">
<!-- Generated by graphviz version 13.0.1 (20250615.1724)
 -->
<!-- Title: AWS ECS Microservices Architecture Pages: 1 -->
<svg width="1276pt" height="1465pt"
 viewBox="0.00 0.00 1276.00 1465.00" xmlns="http://www.w3.org/2000/svg" xmlns:xlink="http://www.w3.org/1999/xlink">
<g id="graph0" class="graph" transform="scale(1 1) rotate(0) translate(144 1321.3)">
<title>AWS ECS Microservices Architecture</title>
<polygon fill="white" stroke="none" points="-144,144 -144,-1321.3 1132.4,-1321.3 1132.4,144 -144,144"/>
<text xml:space="preserve" text-anchor="middle" x="494.2" y="-9.25" font-family="Sans-Serif" font-size="15.00" fill="#2d3436">AWS ECS Microservices Architecture</text>
<g id="clust1" class="cluster">
<title>cluster_VPC</title>
<path fill="#e5f5fd" stroke="#aeb6be" d="M20,-401.1C20,-401.1 568,-401.1 568,-401.1 574,-401.1 580,-407.1 580,-413.1 580,-413.1 580,-829.7 580,-829.7 580,-835.7 574,-841.7 568,-841.7 568,-841.7 20,-841.7 20,-841.7 14,-841.7 8,-835.7 8,-829.7 8,-829.7 8,-413.1 8,-413.1 8,-407.1 14,-401.1 20,-401.1"/>
<text xml:space="preserve" text-anchor="middle" x="26.88" y="-826.3" font-family="Sans-Serif" font-size="12.00" fill="#2d3436">VPC</text>
</g>
<g id="clust2" class="cluster">
<title>cluster_Public Subnets</title>
<path fill="#ebf3e7" stroke="#aeb6be" d="M28,-633.4C28,-633.4 408,-633.4 408,-633.4 414,-633.4 420,-639.4 420,-645.4 420,-645.4 420,-797.95 420,-797.95 420,-803.95 414,-809.95 408,-809.95 408,-809.95 28,-809.95 28,-809.95 22,-809.95 16,-803.95 16,-797.95 16,-797.95 16,-645.4 16,-645.4 16,-639.4 22,-633.4 28,-633.4"/>
<text xml:space="preserve" text-anchor="middle" x="62.62" y="-794.55" font-family="Sans-Serif" font-size="12.00" fill="#2d3436">Public Subnets</text>
</g>
<g id="clust3" class="cluster">
<title>cluster_Private Subnets</title>
<path fill="#ebf3e7" stroke="#aeb6be" d="M28,-409.1C28,-409.1 560,-409.1 560,-409.1 566,-409.1 572,-415.1 572,-421.1 572,-421.1 572,-613.4 572,-613.4 572,-619.4 566,-625.4 560,-625.4 560,-625.4 28,-625.4 28,-625.4 22,-625.4 16,-619.4 16,-613.4 16,-613.4 16,-421.1 16,-421.1 16,-415.1 22,-409.1 28,-409.1"/>
<text xml:space="preserve" text-anchor="middle" x="64.88" y="-610" font-family="Sans-Serif" font-size="12.00" fill="#2d3436">Private Subnets</text>
</g>
<g id="clust4" class="cluster">
<title>cluster_ECS Cluster</title>
<path fill="#ece8f6" stroke="#aeb6be" d="M172,-417.1C172,-417.1 552,-417.1 552,-417.1 558,-417.1 564,-423.1 564,-429.1 564,-429.1 564,-581.65 564,-581.65 564,-587.65 558,-593.65 552,-593.65 552,-593.65 172,-593.65 172,-593.65 166,-593.65 160,-587.65 160,-581.65 160,-581.65 160,-429.1 160,-429.1 160,-423.1 166,-417.1 172,-417.1"/>
<text xml:space="preserve" text-anchor="middle" x="198.75" y="-578.25" font-family="Sans-Serif" font-size="12.00" fill="#2d3436">ECS Cluster</text>
</g>
<g id="clust5" class="cluster">
<title>cluster_CI/CD Pipeline</title>
<path fill="#e5f5fd" stroke="#aeb6be" d="M604,-35.5C604,-35.5 840,-35.5 840,-35.5 846,-35.5 852,-41.5 852,-47.5 852,-47.5 852,-797.95 852,-797.95 852,-803.95 846,-809.95 840,-809.95 840,-809.95 604,-809.95 604,-809.95 598,-809.95 592,-803.95 592,-797.95 592,-797.95 592,-47.5 592,-47.5 592,-41.5 598,-35.5 604,-35.5"/>
<text xml:space="preserve" text-anchor="middle" x="638.62" y="-794.55" font-family="Sans-Serif" font-size="12.00" fill="#2d3436">CI/CD Pipeline</text>
</g>
<!-- c73d7ce6c1e54c7cb675cf2af0a47232 -->
<g id="node1" class="node">
<title>c73d7ce6c1e54c7cb675cf2af0a47232</title>
<image xlink:href="C:\Users\Reji\AppData\Local\Programs\Python\Python313\Lib\site-packages\resources/aws/general\internet-alt1.png" width="100.8px" height="100.8px" preserveAspectRatio="xMinYMin meet" x="311.6" y="-1159.3"/>
<text xml:space="preserve" text-anchor="middle" x="362" y="-1044.65" font-family="Sans-Serif" font-size="13.00" fill="#2d3436">Internet</text>
</g>
<!-- 1fc6deff87a74382bd470197b4262ca3 -->
<g id="node2" class="node">
<title>1fc6deff87a74382bd470197b4262ca3</title>
<image xlink:href="C:\Users\Reji\AppData\Local\Programs\Python\Python313\Lib\site-packages\resources/aws/network\internet-gateway.png" width="100.8px" height="100.8px" preserveAspectRatio="xMinYMin meet" x="311.6" y="-968.5"/>
<text xml:space="preserve" text-anchor="middle" x="362" y="-853.85" font-family="Sans-Serif" font-size="13.00" fill="#2d3436">Internet Gateway</text>
</g>
<!-- c73d7ce6c1e54c7cb675cf2af0a47232&#45;&gt;1fc6deff87a74382bd470197b4262ca3 -->
<g id="edge1" class="edge">
<title>c73d7ce6c1e54c7cb675cf2af0a47232&#45;&gt;1fc6deff87a74382bd470197b4262ca3</title>
<path fill="none" stroke="#7b8894" d="M362,-1040.56C362,-1040.56 362,-997.8 362,-997.8"/>
<polygon fill="#7b8894" stroke="#7b8894" points="365.5,-997.8 362,-987.8 358.5,-997.8 365.5,-997.8"/>
</g>
<!-- 97980a749c224647bf5b28c757eba437 -->
<g id="node6" class="node">
<title>97980a749c224647bf5b28c757eba437</title>
<image xlink:href="C:\Users\Reji\AppData\Local\Programs\Python\Python313\Lib\site-packages\resources/aws/network\elb-application-load-balancer.png" width="100.8px" height="100.8px" preserveAspectRatio="xMinYMin meet" x="311.6" y="-760.2"/>
<text xml:space="preserve" text-anchor="middle" x="362" y="-645.55" font-family="Sans-Serif" font-size="13.00" fill="#2d3436">Application Load Balancer</text>
</g>
<!-- 1fc6deff87a74382bd470197b4262ca3&#45;&gt;97980a749c224647bf5b28c757eba437 -->
<g id="edge2" class="edge">
<title>1fc6deff87a74382bd470197b4262ca3&#45;&gt;97980a749c224647bf5b28c757eba437</title>
<path fill="none" stroke="#7b8894" d="M362,-849.89C362,-849.89 362,-789.67 362,-789.67"/>
<polygon fill="#7b8894" stroke="#7b8894" points="365.5,-789.67 362,-779.67 358.5,-789.67 365.5,-789.67"/>
</g>
<!-- 497781658d7948afbc004188c6be55b6 -->
<g id="node3" class="node">
<title>497781658d7948afbc004188c6be55b6</title>
<image xlink:href="C:\Users\Reji\AppData\Local\Programs\Python\Python313\Lib\site-packages\resources/aws/network\vpc.png" width="100.8px" height="100.8px" preserveAspectRatio="xMinYMin meet" x="455.6" y="-760.2"/>
<text xml:space="preserve" text-anchor="middle" x="506" y="-645.55" font-family="Sans-Serif" font-size="13.00" fill="#2d3436">Main VPC</text>
</g>
<!-- fe25dedeb874459cb84dbfe893b86023 -->
<g id="node4" class="node">
<title>fe25dedeb874459cb84dbfe893b86023</title>
<image xlink:href="C:\Users\Reji\AppData\Local\Programs\Python\Python313\Lib\site-packages\resources/aws/network\public-subnet.png" width="100.8px" height="100.8px" preserveAspectRatio="xMinYMin meet" x="23.6" y="-760.2"/>
<text xml:space="preserve" text-anchor="middle" x="74" y="-645.55" font-family="Sans-Serif" font-size="13.00" fill="#2d3436">Public Subnet</text>
</g>
<!-- fec057a948bf4563a2b58dc55c6df666 -->
<g id="node5" class="node">
<title>fec057a948bf4563a2b58dc55c6df666</title>
<image xlink:href="C:\Users\Reji\AppData\Local\Programs\Python\Python313\Lib\site-packages\resources/aws/network\nat-gateway.png" width="100.8px" height="100.8px" preserveAspectRatio="xMinYMin meet" x="167.6" y="-760.2"/>
<text xml:space="preserve" text-anchor="middle" x="218" y="-645.55" font-family="Sans-Serif" font-size="13.00" fill="#2d3436">NAT Gateway</text>
</g>
<!-- fad98361ab2a4b638c40551c0f8a2c59 -->
<g id="node7" class="node">
<title>fad98361ab2a4b638c40551c0f8a2c59</title>
<image xlink:href="C:\Users\Reji\AppData\Local\Programs\Python\Python313\Lib\site-packages\resources/aws/network\private-subnet.png" width="100.8px" height="100.8px" preserveAspectRatio="xMinYMin meet" x="23.6" y="-543.9"/>
<text xml:space="preserve" text-anchor="middle" x="74" y="-429.25" font-family="Sans-Serif" font-size="13.00" fill="#2d3436">Private Subnet</text>
</g>
<!-- fec057a948bf4563a2b58dc55c6df666&#45;&gt;fad98361ab2a4b638c40551c0f8a2c59 -->
<g id="edge5" class="edge">
<title>fec057a948bf4563a2b58dc55c6df666&#45;&gt;fad98361ab2a4b638c40551c0f8a2c59</title>
<path fill="none" stroke="#7b8894" d="M218,-641.52C218,-619.89 218,-601.5 218,-601.5 218,-601.5 74,-601.5 74,-601.5 74,-601.5 74,-573.41 74,-573.41"/>
<polygon fill="#7b8894" stroke="#7b8894" points="77.5,-573.41 74,-563.41 70.5,-573.41 77.5,-573.41"/>
</g>
<!-- 7b84f48b53694d95810224bd84371da2 -->
<g id="node9" class="node">
<title>7b84f48b53694d95810224bd84371da2</title>
<image xlink:href="C:\Users\Reji\AppData\Local\Programs\Python\Python313\Lib\site-packages\resources/aws/compute\fargate.png" width="100.8px" height="100.8px" preserveAspectRatio="xMinYMin meet" x="311.6" y="-543.9"/>
<text xml:space="preserve" text-anchor="middle" x="362" y="-429.25" font-family="Sans-Serif" font-size="13.00" fill="#2d3436">Frontend Service</text>
</g>
<!-- 97980a749c224647bf5b28c757eba437&#45;&gt;7b84f48b53694d95810224bd84371da2 -->
<g id="edge3" class="edge">
<title>97980a749c224647bf5b28c757eba437&#45;&gt;7b84f48b53694d95810224bd84371da2</title>
<path fill="none" stroke="#7b8894" d="M336.8,-641.66C336.8,-641.66 336.8,-573.18 336.8,-573.18"/>
<polygon fill="#7b8894" stroke="#7b8894" points="340.3,-573.18 336.8,-563.18 333.3,-573.18 340.3,-573.18"/>
</g>
<!-- e548417644ce499c9bd0446ff7f39403 -->
<g id="node10" class="node">
<title>e548417644ce499c9bd0446ff7f39403</title>
<image xlink:href="C:\Users\Reji\AppData\Local\Programs\Python\Python313\Lib\site-packages\resources/aws/compute\fargate.png" width="100.8px" height="100.8px" preserveAspectRatio="xMinYMin meet" x="455.6" y="-543.9"/>
<text xml:space="preserve" text-anchor="middle" x="506" y="-429.25" font-family="Sans-Serif" font-size="13.00" fill="#2d3436">Backend Service</text>
</g>
<!-- 97980a749c224647bf5b28c757eba437&#45;&gt;e548417644ce499c9bd0446ff7f39403 -->
<g id="edge4" class="edge">
<title>97980a749c224647bf5b28c757eba437&#45;&gt;e548417644ce499c9bd0446ff7f39403</title>
<path fill="none" stroke="#7b8894" d="M387.2,-641.52C387.2,-610.88 387.2,-581.5 387.2,-581.5 387.2,-581.5 506,-581.5 506,-581.5 506,-581.5 506,-573.04 506,-573.04"/>
<polygon fill="#7b8894" stroke="#7b8894" points="509.5,-573.04 506,-563.04 502.5,-573.05 509.5,-573.04"/>
</g>
<!-- 75e3899c56554c1798e35c512e28f99b -->
<g id="node8" class="node">
<title>75e3899c56554c1798e35c512e28f99b</title>
<image xlink:href="C:\Users\Reji\AppData\Local\Programs\Python\Python313\Lib\site-packages\resources/aws/compute\elastic-container-service.png" width="100.8px" height="100.8px" preserveAspectRatio="xMinYMin meet" x="167.6" y="-543.9"/>
<text xml:space="preserve" text-anchor="middle" x="218" y="-429.25" font-family="Sans-Serif" font-size="13.00" fill="#2d3436">ECS Cluster</text>
</g>
<!-- 4413a6bc2b0f4f57a97718fb02bd5932 -->
<g id="node17" class="node">
<title>4413a6bc2b0f4f57a97718fb02bd5932</title>
<image xlink:href="C:\Users\Reji\AppData\Local\Programs\Python\Python313\Lib\site-packages\resources/aws/management\cloudwatch.png" width="100.8px" height="100.8px" preserveAspectRatio="xMinYMin meet" x="311.6" y="-353.1"/>
<text xml:space="preserve" text-anchor="middle" x="362" y="-238.45" font-family="Sans-Serif" font-size="13.00" fill="#2d3436">CloudWatch Monitoring</text>
</g>
<!-- 7b84f48b53694d95810224bd84371da2&#45;&gt;4413a6bc2b0f4f57a97718fb02bd5932 -->
<g id="edge14" class="edge">
<title>7b84f48b53694d95810224bd84371da2&#45;&gt;4413a6bc2b0f4f57a97718fb02bd5932</title>
<path fill="none" stroke="#7b8894" d="M336.8,-425.16C336.8,-425.16 336.8,-382.4 336.8,-382.4"/>
<polygon fill="#7b8894" stroke="#7b8894" points="340.3,-382.4 336.8,-372.4 333.3,-382.4 340.3,-382.4"/>
</g>
<!-- 687323c1fd5c424ab6f96f1bb439d27d -->
<g id="node19" class="node">
<title>687323c1fd5c424ab6f96f1bb439d27d</title>
<image xlink:href="C:\Users\Reji\AppData\Local\Programs\Python\Python313\Lib\site-packages\resources/aws/security\secrets-manager.png" width="100.8px" height="100.8px" preserveAspectRatio="xMinYMin meet" x="455.6" y="-353.1"/>
<text xml:space="preserve" text-anchor="middle" x="506" y="-238.45" font-family="Sans-Serif" font-size="13.00" fill="#2d3436">Secrets Manager</text>
</g>
<!-- 7b84f48b53694d95810224bd84371da2&#45;&gt;687323c1fd5c424ab6f96f1bb439d27d -->
<g id="edge19" class="edge">
<title>7b84f48b53694d95810224bd84371da2&#45;&gt;687323c1fd5c424ab6f96f1bb439d27d</title>
<path fill="none" stroke="#7b8894" d="M387.2,-425.29C387.2,-405.69 387.2,-389.5 387.2,-389.5 387.2,-389.5 506,-389.5 506,-389.5 506,-389.5 506,-382.61 506,-382.61"/>
<polygon fill="#7b8894" stroke="#7b8894" points="509.5,-382.61 506,-372.61 502.5,-382.61 509.5,-382.61"/>
</g>
<!-- e548417644ce499c9bd0446ff7f39403&#45;&gt;4413a6bc2b0f4f57a97718fb02bd5932 -->
<g id="edge15" class="edge">
<title>e548417644ce499c9bd0446ff7f39403&#45;&gt;4413a6bc2b0f4f57a97718fb02bd5932</title>
<path fill="none" stroke="#7b8894" d="M480.8,-425.32C480.8,-414.88 480.8,-407.5 480.8,-407.5 480.8,-407.5 362,-407.5 362,-407.5 362,-407.5 362,-382.36 362,-382.36"/>
<polygon fill="#7b8894" stroke="#7b8894" points="365.5,-382.36 362,-372.36 358.5,-382.36 365.5,-382.36"/>
</g>
<!-- e548417644ce499c9bd0446ff7f39403&#45;&gt;687323c1fd5c424ab6f96f1bb439d27d -->
<g id="edge20" class="edge">
<title>e548417644ce499c9bd0446ff7f39403&#45;&gt;687323c1fd5c424ab6f96f1bb439d27d</title>
<path fill="none" stroke="#7b8894" d="M531.2,-425.16C531.2,-425.16 531.2,-382.4 531.2,-382.4"/>
<polygon fill="#7b8894" stroke="#7b8894" points="534.7,-382.4 531.2,-372.4 527.7,-382.4 534.7,-382.4"/>
</g>
<!-- 1bd0c83862404c7f8cbc4e24648ccfbb -->
<g id="node11" class="node">
<title>1bd0c83862404c7f8cbc4e24648ccfbb</title>
<image xlink:href="C:\Users\Reji\AppData\Local\Programs\Python\Python313\Lib\site-packages\resources/aws/general\general.png" width="100.8px" height="100.8px" preserveAspectRatio="xMinYMin meet" x="743.6" y="-760.2"/>
<text xml:space="preserve" text-anchor="middle" x="794" y="-645.55" font-family="Sans-Serif" font-size="13.00" fill="#2d3436">GitHub</text>
</g>
<!-- ed9707a9ecce44409c3800917df328cf -->
<g id="node12" class="node">
<title>ed9707a9ecce44409c3800917df328cf</title>
<image xlink:href="C:\Users\Reji\AppData\Local\Programs\Python\Python313\Lib\site-packages\resources/aws/devtools\codepipeline.png" width="100.8px" height="100.8px" preserveAspectRatio="xMinYMin meet" x="743.6" y="-543.9"/>
<text xml:space="preserve" text-anchor="middle" x="794" y="-429.25" font-family="Sans-Serif" font-size="13.00" fill="#2d3436">CodePipeline</text>
</g>
<!-- 1bd0c83862404c7f8cbc4e24648ccfbb&#45;&gt;ed9707a9ecce44409c3800917df328cf -->
<g id="edge6" class="edge">
<title>1bd0c83862404c7f8cbc4e24648ccfbb&#45;&gt;ed9707a9ecce44409c3800917df328cf</title>
<path fill="none" stroke="#7b8894" d="M777.2,-641.66C777.2,-641.66 777.2,-573.18 777.2,-573.18"/>
<polygon fill="#7b8894" stroke="#7b8894" points="780.7,-573.18 777.2,-563.18 773.7,-573.18 780.7,-573.18"/>
</g>
<!-- 1bd0c83862404c7f8cbc4e24648ccfbb&#45;&gt;ed9707a9ecce44409c3800917df328cf -->
<g id="edge9" class="edge">
<title>1bd0c83862404c7f8cbc4e24648ccfbb&#45;&gt;ed9707a9ecce44409c3800917df328cf</title>
<path fill="none" stroke="#7b8894" d="M810.8,-641.66C810.8,-641.66 810.8,-573.18 810.8,-573.18"/>
<polygon fill="#7b8894" stroke="#7b8894" points="814.3,-573.18 810.8,-563.18 807.3,-573.18 814.3,-573.18"/>
</g>
<!-- 31e09dc55fd74bd5bce27c4598130d79 -->
<g id="node13" class="node">
<title>31e09dc55fd74bd5bce27c4598130d79</title>
<image xlink:href="C:\Users\Reji\AppData\Local\Programs\Python\Python313\Lib\site-packages\resources/aws/devtools\codebuild.png" width="100.8px" height="100.8px" preserveAspectRatio="xMinYMin meet" x="743.6" y="-353.1"/>
<text xml:space="preserve" text-anchor="middle" x="794" y="-238.45" font-family="Sans-Serif" font-size="13.00" fill="#2d3436">CodeBuild</text>
</g>
<!-- ed9707a9ecce44409c3800917df328cf&#45;&gt;31e09dc55fd74bd5bce27c4598130d79 -->
<g id="edge7" class="edge">
<title>ed9707a9ecce44409c3800917df328cf&#45;&gt;31e09dc55fd74bd5bce27c4598130d79</title>
<path fill="none" stroke="#7b8894" d="M810.8,-425.16C810.8,-425.16 810.8,-382.4 810.8,-382.4"/>
<polygon fill="#7b8894" stroke="#7b8894" points="814.3,-382.4 810.8,-372.4 807.3,-382.4 814.3,-382.4"/>
</g>
<!-- ed9707a9ecce44409c3800917df328cf&#45;&gt;31e09dc55fd74bd5bce27c4598130d79 -->
<g id="edge10" class="edge">
<title>ed9707a9ecce44409c3800917df328cf&#45;&gt;31e09dc55fd74bd5bce27c4598130d79</title>
<path fill="none" stroke="#7b8894" d="M777.2,-425.16C777.2,-425.16 777.2,-382.4 777.2,-382.4"/>
<polygon fill="#7b8894" stroke="#7b8894" points="780.7,-382.4 777.2,-372.4 773.7,-382.4 780.7,-382.4"/>
</g>
<!-- 1383f573353347d6b5721520cb4a30cf -->
<g id="node21" class="node">
<title>1383f573353347d6b5721520cb4a30cf</title>
<image xlink:href="C:\Users\Reji\AppData\Local\Programs\Python\Python313\Lib\site-packages\resources/aws/storage\simple-storage-service-s3.png" width="100.8px" height="100.8px" preserveAspectRatio="xMinYMin meet" x="887.6" y="-353.1"/>
<text xml:space="preserve" text-anchor="middle" x="938" y="-238.45" font-family="Sans-Serif" font-size="13.00" fill="#2d3436">S3 Artifacts</text>
</g>
<!-- ed9707a9ecce44409c3800917df328cf&#45;&gt;1383f573353347d6b5721520cb4a30cf -->
<g id="edge17" class="edge">
<title>ed9707a9ecce44409c3800917df328cf&#45;&gt;1383f573353347d6b5721520cb4a30cf</title>
<path fill="none" stroke="#7b8894" d="M844.36,-493.5C885.89,-493.5 938,-493.5 938,-493.5 938,-493.5 938,-382.56 938,-382.56"/>
<polygon fill="#7b8894" stroke="#7b8894" points="941.5,-382.56 938,-372.56 934.5,-382.56 941.5,-382.56"/>
</g>
<!-- 97ca4936e97a4e2cada3c0ea3cdfcebc -->
<g id="node14" class="node">
<title>97ca4936e97a4e2cada3c0ea3cdfcebc</title>
<image xlink:href="C:\Users\Reji\AppData\Local\Programs\Python\Python313\Lib\site-packages\resources/aws/compute\ec2-container-registry.png" width="100.8px" height="100.8px" preserveAspectRatio="xMinYMin meet" x="599.6" y="-162.3"/>
<text xml:space="preserve" text-anchor="middle" x="650" y="-47.65" font-family="Sans-Serif" font-size="13.00" fill="#2d3436">Frontend Repository</text>
</g>
<!-- 31e09dc55fd74bd5bce27c4598130d79&#45;&gt;97ca4936e97a4e2cada3c0ea3cdfcebc -->
<g id="edge8" class="edge">
<title>31e09dc55fd74bd5bce27c4598130d79&#45;&gt;97ca4936e97a4e2cada3c0ea3cdfcebc</title>
<path fill="none" stroke="#7b8894" d="M743.62,-302.5C711.24,-302.5 675.2,-302.5 675.2,-302.5 675.2,-302.5 675.2,-191.69 675.2,-191.69"/>
<polygon fill="#7b8894" stroke="#7b8894" points="678.7,-191.69 675.2,-181.69 671.7,-191.69 678.7,-191.69"/>
</g>
<!-- b9ef1fc716a14aacbe2d82e377eb238e -->
<g id="node15" class="node">
<title>b9ef1fc716a14aacbe2d82e377eb238e</title>
<image xlink:href="C:\Users\Reji\AppData\Local\Programs\Python\Python313\Lib\site-packages\resources/aws/compute\ec2-container-registry.png" width="100.8px" height="100.8px" preserveAspectRatio="xMinYMin meet" x="743.6" y="-162.3"/>
<text xml:space="preserve" text-anchor="middle" x="794" y="-47.65" font-family="Sans-Serif" font-size="13.00" fill="#2d3436">Backend Repository</text>
</g>
<!-- 31e09dc55fd74bd5bce27c4598130d79&#45;&gt;b9ef1fc716a14aacbe2d82e377eb238e -->
<g id="edge11" class="edge">
<title>31e09dc55fd74bd5bce27c4598130d79&#45;&gt;b9ef1fc716a14aacbe2d82e377eb238e</title>
<path fill="none" stroke="#7b8894" d="M794,-234.36C794,-234.36 794,-191.6 794,-191.6"/>
<polygon fill="#7b8894" stroke="#7b8894" points="797.5,-191.6 794,-181.6 790.5,-191.6 797.5,-191.6"/>
</g>
<!-- 0f3d58996a6748f5928e547fe1f32957 -->
<g id="node16" class="node">
<title>0f3d58996a6748f5928e547fe1f32957</title>
<image xlink:href="C:\Users\Reji\AppData\Local\Programs\Python\Python313\Lib\site-packages\resources/aws/devtools\codedeploy.png" width="100.8px" height="100.8px" preserveAspectRatio="xMinYMin meet" x="599.6" y="-760.2"/>
<text xml:space="preserve" text-anchor="middle" x="650" y="-645.55" font-family="Sans-Serif" font-size="13.00" fill="#2d3436">CodeDeploy</text>
</g>
<!-- 0f3d58996a6748f5928e547fe1f32957&#45;&gt;7b84f48b53694d95810224bd84371da2 -->
<g id="edge12" class="edge">
<title>0f3d58996a6748f5928e547fe1f32957&#45;&gt;7b84f48b53694d95810224bd84371da2</title>
<path fill="none" stroke="#7b8894" d="M624.8,-641.54C624.8,-629.91 624.8,-621.5 624.8,-621.5 624.8,-621.5 362,-621.5 362,-621.5 362,-621.5 362,-573.14 362,-573.14"/>
<polygon fill="#7b8894" stroke="#7b8894" points="365.5,-573.14 362,-563.14 358.5,-573.14 365.5,-573.14"/>
</g>
<!-- 0f3d58996a6748f5928e547fe1f32957&#45;&gt;e548417644ce499c9bd0446ff7f39403 -->
<g id="edge13" class="edge">
<title>0f3d58996a6748f5928e547fe1f32957&#45;&gt;e548417644ce499c9bd0446ff7f39403</title>
<path fill="none" stroke="#7b8894" d="M650,-641.66C650,-578.26 650,-493.5 650,-493.5 650,-493.5 567.88,-493.5 567.88,-493.5"/>
<polygon fill="#7b8894" stroke="#7b8894" points="567.88,-490 557.88,-493.5 567.88,-497 567.88,-490"/>
</g>
<!-- e668744d6ce340d3884272ca4fb8eb04 -->
<g id="node18" class="node">
<title>e668744d6ce340d3884272ca4fb8eb04</title>
<image xlink:href="C:\Users\Reji\AppData\Local\Programs\Python\Python313\Lib\site-packages\resources/aws/integration\simple-notification-service-sns.png" width="100.8px" height="100.8px" preserveAspectRatio="xMinYMin meet" x="311.6" y="-162.3"/>
<text xml:space="preserve" text-anchor="middle" x="362" y="-47.65" font-family="Sans-Serif" font-size="13.00" fill="#2d3436">SNS Notifications</text>
</g>
<!-- 4413a6bc2b0f4f57a97718fb02bd5932&#45;&gt;e668744d6ce340d3884272ca4fb8eb04 -->
<g id="edge16" class="edge">
<title>4413a6bc2b0f4f57a97718fb02bd5932&#45;&gt;e668744d6ce340d3884272ca4fb8eb04</title>
<path fill="none" stroke="#7b8894" d="M362,-234.36C362,-234.36 362,-191.6 362,-191.6"/>
<polygon fill="#7b8894" stroke="#7b8894" points="365.5,-191.6 362,-181.6 358.5,-191.6 365.5,-191.6"/>
</g>
<!-- d31f6e84322c4c868884d27a63abc6a5 -->
<g id="node20" class="node">
<title>d31f6e84322c4c868884d27a63abc6a5</title>
<image xlink:href="C:\Users\Reji\AppData\Local\Programs\Python\Python313\Lib\site-packages\resources/aws/security\key-management-service.png" width="100.8px" height="100.8px" preserveAspectRatio="xMinYMin meet" x="887.6" y="-162.3"/>
<text xml:space="preserve" text-anchor="middle" x="938" y="-47.65" font-family="Sans-Serif" font-size="13.00" fill="#2d3436">KMS Encryption</text>
</g>
<!-- 1383f573353347d6b5721520cb4a30cf&#45;&gt;d31f6e84322c4c868884d27a63abc6a5 -->
<g id="edge18" class="edge">
<title>1383f573353347d6b5721520cb4a30cf&#45;&gt;d31f6e84322c4c868884d27a63abc6a5</title>
<path fill="none" stroke="#7b8894" d="M938,-234.36C938,-234.36 938,-191.6 938,-191.6"/>
<polygon fill="#7b8894" stroke="#7b8894" points="941.5,-191.6 938,-181.6 934.5,-191.6 941.5,-191.6"/>
</g>
</g>
</svg>
